<svg xmlns="http://www.w3.org/2000/svg" viewBox="0 0 534.26 446.55"><defs><style>.cls-1{fill:none;stroke:#000;stroke-linecap:round;stroke-linejoin:round;stroke-width:2px;}</style></defs><g id="Layer_2" data-name="Layer 2"><g id="Layer_1-2" data-name="Layer 1"><path class="cls-1" d="M148,151c-3.6,6.92-4.29,14.38-4,22a43.29,43.29,0,0,0,2.37,13c1,2.68,1.51,5.87-.6,8.15,1.33,9.12,5.53,17.1,6.51,26.28,1.43,13.45.5,26.76-.53,40-1,13-4.19,25.89-7.84,38.5-1.35,4.64-2.71,9.32-5.25,13.62-.89,1.52-2.45,4.37.27,6.47.41.31.12,1.6.05,2.43-.91,11.23,2.26,21.8,4.89,32.53,2.06,8.41.1,16.91-2.5,24.93-3.92,12.1-8.25,24.14-10.56,36.6-1.08,5.78-2.61,13,3.68,17.94"/><path class="cls-1" d="M464,157.5c-3.18,7.54-4.89,15.11-1,23,1.85,3.79,2.64,7.61,1.22,12-.92,2.87,0,6.26.71,9.46,3.26,14.63,5.72,29.5,4.44,44.47-1.59,18.81-1.67,37.79-8.08,56.1-3.52,10.07-6.57,20.84-4.22,31.9,2.25,10.57,3.85,21.18,3.43,32-.13,3.34-.64,6.67-1,10"/><path class="cls-1" d="M389.5,129.5c2.91,7.15-.2,14.09-1.25,21-.58,3.8-.58,6.15,2.11,9.16a13.6,13.6,0,0,1,2.55,13.85c-3,8.48-2.16,17.38-3.31,26-1.26,9.63-1.59,19.35-2.89,29-1.58,11.71-2.25,23.62-.26,35.48a97.76,97.76,0,0,1,1,12c.34,7.73,3.11,14.82,5.55,22,2.74,8,6.14,15.88,8.35,24.05,2.38,8.83-.72,17.57-3.08,25.9a54.64,54.64,0,0,0,.59,32.93c3.49,10.2,5.53,21,10.53,30.68a23.81,23.81,0,0,1,2,8.46c.78,8-2.68,13.88-9.44,18-1.13.69-2.24,1.43-3.09,2,2.66,5.49,7.07,3.66,10.1,3.74,4.44.13,9-.07,13.49-.19a7.57,7.57,0,0,0,6-2.52"/><path class="cls-1" d="M523.5,244.5c2.31,3.57,5,6.54,9.76,6.65-4-8-6.64-16.6-14.73-21.7-5.74-3.62-5.79-10.61-8.38-16-5.8-12.13-7.38-25.63-11-38.47-1.25-4.43-2.66-9.15-5.37-12.25-5.3-6.07-4.47-13-4.53-19.71,0-4.93.16-9.75-1.24-14.5a20.13,20.13,0,0,1,.08-10.48c3.78-15.92-4.85-31.07-20.58-35.5a65.49,65.49,0,0,1-21.15-9.8c-5.93-4.27-5.5-9.58-5.28-15.22.24-5.85,5-9.84,6.93-15,1-2.5,2.64-5-.93-7.1-1.08-.63-.72-2.58-.53-3.9A18.87,18.87,0,0,0,428,10c-6.52-.12-12.47,1-17.52,5.52-5.31,4.74-6.91,9.39-5.43,17.27l-3.65,3.3c.6,2.82,1.22,5.67,1.76,8.22,7.54,3.76,7.36,10.88,8.24,17.24C412.31,68,408.51,72.25,403,75c-7.21,3.57-15.29,4.85-22.51,8.48-8.76,4.4-13.78,11.4-14.36,21.05-.36,6.14-.92,12.45,1.34,18.51.75,2-.73,4-.95,6-.79,7.32-3.09,14.39-.77,22.08C367,155.33,364.3,160,362,164c-1.81,3.1-4.22,5.87-5,9.52"/><path class="cls-1" d="M429,242.5a5.36,5.36,0,0,0-.46,2c1.43,8.25-.44,16.35-.9,24.52a204.15,204.15,0,0,0,.44,24.48c.42,6.7.89,13.37-.14,20-.5,3.22.08,6.47.33,9.49.79,9.41-5.31,17.73-3.71,27,1.15,6.65,2.14,13.34,1.33,20a186,186,0,0,0-1.3,31c.34,7.24.33,14.64,3.41,21.5"/><path class="cls-1" d="M95.5,61c-1,2.44-.24,5-.56,7.6-3.34,5.57-9.47,6.73-15,8.85a65.8,65.8,0,0,1-11.49,3.48c-9.85,1.83-15.3,8.3-18.43,17.09-2.38,6.68-3.42,13.42-.77,20.56.94,2.52.8,5.81.41,8.94-.7,5.75-.28,11.65-.18,17.48a28.83,28.83,0,0,1-4.45,16A58.35,58.35,0,0,0,38.5,177.5"/><path class="cls-1" d="M75,196.5c-3.07,3.63-2.49,8.33-3.38,12.53a210.73,210.73,0,0,0-3.05,21c-.38,3.63.13,7.32.34,11,.34,6,0,12,.1,18a111.4,111.4,0,0,0,7.83,39.06c3,7.63,6.18,15.28,7.7,23.23,4.8,2,6.3,9.33,13,8.21"/><path class="cls-1" d="M87,319.5c-.72,1.77-1.6,3.51-1.5,5.5.45,8.24-1.85,16.14-3.68,24-3.23,13.84-1.48,27,3.13,40.06a120.08,120.08,0,0,0,6.57,14.47C95.33,411,95.17,419,94.91,427a6.32,6.32,0,0,1-3.36,5.08A58.17,58.17,0,0,0,85,437.39c-1,2-.36,3.29,0,4.68,3.35,0,6.18,1.63,8.68,3.48,3.12-.14,5.16-1.91,7.33-3.57-.56-2.59,1-4.92.92-7.48"/><path class="cls-1" d="M464.5,156.5c4.4,0,3.81,3.14,4,6,.92,12.21,2.13,24.39,8,35.5,3.89,7.38,8.9,14.06,13.5,21,1.92,2.89,4,5.69,6,8.51a9.15,9.15,0,0,1,1.87,6c-1.29,11,2.39,21.4,4.23,32,.14.82.19,1.69.41,2.51l3.48,2"/><path class="cls-1" d="M109.5,248.5c1.41,16.64.14,33.33,1.16,50,.64,10.41.45,21,.77,31.48.12,4,2.57,7,3.8,10.42a17.88,17.88,0,0,1,.3,11.59c-1.44,5.14-2.64,10.34-4,15.7,3.32,4.86,1.82,10.82,2.82,16.32,1.85,10.21,1.12,20.63,1.09,31,0,2.5.13,5.47-1.09,7.41-4.32,6.89-2.24,13.42-.09,20a7.13,7.13,0,0,0,5.76.76c1.88-.5,4-.87,6.1.7A3.77,3.77,0,0,0,131,443"/><path class="cls-1" d="M148.5,128c2.07.06,2,1.46,2,3,0,3.58-1,7-1.51,10.5-.6,3.89-1.12,7.6.83,11.57s1.8,8.88,1.63,13.43c-.49,12.59,4.47,23.4,10.45,34,5.18,9.21,11.2,17.88,16.67,26.9a11.34,11.34,0,0,1,1.89,7.06C179.7,245,182.93,254.91,185,265c.33,1.61.88,2.5,2.55,2.49"/><path class="cls-1" d="M71.5,156.5c-2.39-.55-2,1.3-2,2.5-.12,19.46-6.9,36.74-17,53-3.8,6.15-7.17,12.57-10.48,19a14.27,14.27,0,0,0-1.62,7.47,76,76,0,0,1-4.31,29.55c-.85,2.48-1.87,3.36-4.14,3.45"/><path class="cls-1" d="M99.5,9.5c7.12-1.18,14.06-1.88,21,1.4,7.91,3.71,10,11.07,9.8,18.1-.07,2.28-.42,4.34.62,6.52,2.08,4.38-.19,8.3-2.58,11.4-8.45,11-7.55,21.43,5.59,28.13,7.21,3.67,15.29,4.64,22.65,8.19,7.57,3.66,9.91,10,12.33,16.78,2,5.5,1.11,11.25,1.23,17,.3,13.35-1.11,26.89,2.81,40,.35,1.16.37,2.55,1,3.47,8.65,11.77,9.58,26.13,13.74,39.44,3.64,11.68,6.06,24.26,16.11,33.21,5.09,4.54,8.81,10.51,11.61,16.88-4.43,2.55-5.4,2.2-9.5-3.5"/><path class="cls-1" d="M387.5,158c-1,2.23-1.9,4.47-1.5,7,1.58,10.16-1.35,19.6-5.62,28.44-5.85,12.09-12.19,24-19.88,35.06A15.88,15.88,0,0,0,357.84,240c.63,5.63,1.59,11.57-1.38,17-1.4,2.55-.85,5.4-1.79,8.08s-2.06,2-3.67,1.44"/><path class="cls-1" d="M37.5,179.5c.17,5.55-2,10.69-3.14,16-1.82,8.44-4.48,16.71-6.88,25-1.29,4.45-3.71,8.49-7.55,10.9-7,4.39-9.08,12.25-13.84,18.18a2.52,2.52,0,0,0,1.13,3.53c5.89-1.32,8.67-7.62,14.28-9.6"/><path class="cls-1" d="M356,174c-2.85,4.79-2.28,10.36-3.34,15.53-1.2,5.88-1.3,11.91-4,17.53-1.64,3.35-2.35,7.23-3.07,10.95-1.16,6.06-3.78,11.09-9.06,14.48a19.94,19.94,0,0,0-8.5,11c-.92,2.82-2.17,5.49-4.65,7,.37,2.65,2.05,2.76,3.48,3.69L332,248.5"/><path class="cls-1" d="M429,332.5a23.14,23.14,0,0,1,3.42,17c-1.53,9.52-1.14,19-.39,28.51a263.64,263.64,0,0,1,.21,35c-.31,5.81.44,12.82-6.09,17,2.92,3.08-2.94,8.92,4.23,10.81A32.2,32.2,0,0,1,433,431.5"/><path class="cls-1" d="M110,368.5c-1.73,6.05-1.48,12.34-1.87,18.51-.52,8.13-.16,16.32-.12,24.49a24,24,0,0,0,4,13"/><path class="cls-1" d="M457.5,382.5c-3.82,15.26-9.3,30.14-10.55,46-.11,1.36-.95,2.67-1.45,4"/><path class="cls-1" d="M332.5,245.5c1.85,8.57,1.35,17.36,2.44,26,.26,2.1.88,3.17,3.58,2.94,1.53-3.19,1.37-6.83,1.52-10.45.12-3-.84-6.16,1-9"/><path class="cls-1" d="M16,248.5c.51,5,1.31,9.9.62,15-.5,3.79-.85,7.87,1.77,11.5,2.39,0,2.61-1.83,2.64-4,.07-4.67.3-9.33.47-14"/><path class="cls-1" d="M206,248.5c-2.11,3.16-.58,6.67-1,10-.37,3.15-.11,6.33-.34,9.51s-1.52,4.62-4,5.59c-1.89-6-1.42-12.11-2.19-18.1"/><path class="cls-1" d="M96.5,11.5c-7.11,3.46-10.17,9.4-9.38,17,.48,4.73-1.93,9.27-.26,14.06.48,1.36.56,3.08,1.69,3.89,3.33,2.4,4.21,6.12,5.39,9.58,3.43,10,16.39,13.41,24.06,7"/><path class="cls-1" d="M72,157.5c5.61,8.49,6.8,17.53,2.94,27-1.59,3.89-.52,7.52,0,11.1,6.4,6.39,8.28,15.61,14.53,21.92"/><path class="cls-1" d="M111,334c-4.38,7.93-5.82,16.39-2.77,24.92.92,2.57-.58,5.53,1.77,7.58"/><path class="cls-1" d="M69,125.5c0,7.1,3.2,13.74,2.68,21-.23,3.22-1.91,6.21-1.18,9.49"/><path class="cls-1" d="M524.5,247.5c-2.13,5.35-.6,11-1.34,16.52-.49,3.67-1.59,7-2.27,10.5-2,.75-4.17-.51-5.94,1.77-2.59-7.11-3.11-14.55-4.45-21.79"/><path class="cls-1" d="M464.5,131.5A38.13,38.13,0,0,0,465.92,150c.55,1.64.08,3.64.08,5.47"/><path class="cls-1" d="M72.5,126.5c6.8,7,13.7,7.66,21,2"/><path class="cls-1" d="M346.5,253.5c-.2,6.88-2.3,13.57-2,20.5"/><path class="cls-1" d="M147.5,125.5c-5.36,6.34-12.6,6.45-20,6"/><path class="cls-1" d="M192,254c.83,4.5,1.54,9,2.56,13.49a9.64,9.64,0,0,1-.06,6"/><path class="cls-1" d="M427,221.5v18.85c7.33,4.79,14,6.65,21.5,4.15"/><path class="cls-1" d="M27,258c-1.07,5.95-1.17,12-1.5,18"/><path class="cls-1" d="M425.5,242c-5.38,3.11-11.14,3-17,2"/><path class="cls-1" d="M187,253.5c.36,4.5,1.64,8.81,1.34,13.52-.16,2.4.95,7.13,5.66,6.9,2-.09,2.06,2.63,4,2.06l.92,1c.36-.81.71-1.63,1.07-2.44"/><path class="cls-1" d="M505,256.5c2,6.05.85,12.86,3.75,18.76,1.76-.56,2.51-1.64,3.75-1.26"/><path class="cls-1" d="M112.5,439l-4,5.1c-2.34-.58-4.93.87-7-1.1"/><path class="cls-1" d="M38.5,255.5c-4.07-.08-7.9,1.83-12,1.5"/><path class="cls-1" d="M90,335.5c.07,4.27,2.17,7.84,4,11.5"/><path class="cls-1" d="M105.5,32c-1.65.34-3-.54-4.43-1.17L94.5,33.5"/><path class="cls-1" d="M202.5,250.5c-3.21,3.69-7.57,2-11.49,2.58-2.69.39-5.48-1.94-8,.42"/><path class="cls-1" d="M33.5,258.5c-1.75,3.84-2.06,7.87-2,13l-3.34,5c-2,.43-4.13-.8-5.57,1.19L21,275.5"/><path class="cls-1" d="M458,441c-1.39,2.48-3.81,1.75-6,2.05-5.17.71-10.35.25-15.51.5-2.41.12-4-1-5.5-2.55"/><path class="cls-1" d="M114.5,55.5c-3.33.28-6.67,1-10,0"/><path class="cls-1" d="M132.5,332.5a29.61,29.61,0,0,0-1,10"/><path class="cls-1" d="M352,256a9.2,9.2,0,0,0-1.37,6.48c.68,4.86-1.71,8.56-3.78,12.83-2.85-2.36-4.39.36-6.12,1.92L339,275.5"/><path class="cls-1" d="M119.5,331.5c.44,4,3.85,6.1,6,9"/><path class="cls-1" d="M113.5,52.5h-9"/><path class="cls-1" d="M419.5,330.5c-3,.05-6.15-.7-9,1"/><path class="cls-1" d="M516.5,256.5a98.51,98.51,0,0,1,1,17.5"/><path class="cls-1" d="M166.5,158l-8,2.5"/><path class="cls-1" d="M474,174c1.9,2.46,5.14,2,7.5,3.5"/><path class="cls-1" d="M381.5,170.5c-1.31,3.39-4.7,1.92-7,3"/><path class="cls-1" d="M93.5,435.5c-2.56,1.43-3.25,4.16-4.5,6.5"/><path class="cls-1" d="M54.5,157.5c2.46.49,4.32,2.65,7,2.5"/><path class="cls-1" d="M449,331c-2.05-1.68-4.27-1.16-6.5-.5"/><path class="cls-1" d="M112.5,43.5c.41,1.15,1.55,2.08.77,4-2.42-.87-5.23,1.16-7.77-1"/><path class="cls-1" d="M90,329c-.33,2.36,0,4.4,2.5,5.5"/><path class="cls-1" d="M121.5,328.5c2.62.84,5,2.45,8,2"/><path class="cls-1" d="M446.5,36c-1.36,1.58-1.67,3.54-2,5.5"/><path class="cls-1" d="M448,430a28.18,28.18,0,0,0,9.5,8.5"/><path class="cls-1" d="M130.5,440.5c1.68,2.52,5.19.78,6.67,3.15,2.77-.95,3.73-2.64,3.33-5.15"/><path class="cls-1" d="M120.5,32.5c-3-.85-6-1.37-9,0"/><path class="cls-1" d="M121.5,37.5c-2.26-3.75-4.94-1.23-7.5-.5"/><path class="cls-1" d="M97,436l-4,8.5"/><path class="cls-1" d="M127.5,435.5c2,.58.21,3.57,2.5,4"/><path class="cls-1" d="M405,34.5c1.06,1.22.23,2.68.5,4"/><path class="cls-1" d="M430,429.5c1.36,1.08-.36,2.92,1,4"/><path class="cls-1" d="M443.5,44.5c.06,1.29-.26,2.65.75,3.75"/><path class="cls-1" d="M19.5,256.5c2.33.22,4.73-.49,7,.5"/><path class="cls-1" d="M104.5,36c-2.35,0-4.73-.6-7,.5"/><path class="cls-1" d="M121,436a2.78,2.78,0,0,1,2,1.92c-1.17.57-2.16,1.55-3.55,1.08"/></g></g></svg>